<svg xmlns="http://www.w3.org/2000/svg" width="96" height="96" fill="none" viewBox="0 0 96 96"><rect width="96" height="96" fill="#f8fafc" rx="20"/><path fill="#3b82f6" d="M48 66S28 52 28 38c0-6.6 5.4-12 12-12 4.4 0 8 3.2 8 3.2s3.6-3.2 8-3.2c6.6 0 12 5.4 12 12 0 14-20 28-20 28" opacity=".15"/><rect width="6" height="14" x="34" y="44" fill="#3b82f6" rx="2"/><rect width="6" height="20" x="44" y="38" fill="#2563eb" rx="2"/><rect width="6" height="10" x="54" y="48" fill="#1d4ed8" rx="2"/><path stroke="#1e40af" stroke-linecap="round" stroke-linejoin="round" stroke-width="2" d="m34 42 10-6 10 4 10-8"/><circle cx="34" cy="42" r="2" fill="#1e40af"/><circle cx="44" cy="36" r="2" fill="#1e40af"/><circle cx="54" cy="40" r="2" fill="#1e40af"/><circle cx="64" cy="32" r="2" fill="#1e40af"/></svg>