<svg xmlns="http://www.w3.org/2000/svg" width="96" height="96" fill="none" viewBox="0 0 96 96"><rect width="96" height="96" fill="#eef2ff" rx="20"/><ellipse cx="48" cy="30" fill="#6366f1" opacity=".25" rx="20" ry="6"/><path fill="#6366f1" d="M28 30h40v10H28z" opacity=".25"/><ellipse cx="48" cy="40" fill="#4f46e5" rx="20" ry="6"/><ellipse cx="48" cy="44" fill="#818cf8" opacity=".25" rx="20" ry="6"/><path fill="#818cf8" d="M28 44h40v10H28z" opacity=".25"/><ellipse cx="48" cy="54" fill="#6366f1" rx="20" ry="6"/><path stroke="#3730a3" stroke-linecap="round" stroke-linejoin="round" stroke-width="2" d="M48 58v8m0 0-4-4m4 4 4-4"/><rect width="28" height="10" x="34" y="66" fill="#4f46e5" rx="2"/><path stroke="#eef2ff" d="M34 70h28m-22-4v10m6-10v10m6-10v10m6-10v10"/><text x="48" y="86" fill="#3730a3" font-size="9" font-weight="600" letter-spacing=".5" text-anchor="middle">
    ETL • SQL
  </text></svg>